<?xml version="1.0" encoding="UTF-8" ?>
<!DOCTYPE svg PUBLIC "-//W3C//DTD SVG 1.1//EN" "http://www.w3.org/Graphics/SVG/1.1/DTD/svg11.dtd">
<svg width="1120pt" height="1314pt" viewBox="0 0 1120 1314" version="1.1" xmlns="http://www.w3.org/2000/svg">
<g id="leftHalf">
<path fill="#13BD1E" opacity="1.00" d=" M 409.79 0.00 L 559.67 0.00 C 559.67 100.00 559.67 200.00 559.67 300.00 C 520.33 300.00 481.00 299.99 441.67 300.01 C 441.67 469.34 441.67 638.66 441.67 807.99 C 481.00 808.07 520.34 807.87 559.68 808.09 C 559.65 914.62 559.68 1021.14 559.66 1127.67 C 401.91 1127.67 244.15 1127.67 86.39 1127.67 C 58.08 1088.45 37.21 1044.15 23.02 997.99 C 10.42 957.16 2.74 914.85 0.00 872.21 L 0.00 402.70 C 2.24 350.56 10.65 298.25 29.45 249.38 C 46.75 203.94 73.16 161.90 107.20 127.13 C 130.50 103.26 157.21 82.80 185.96 65.91 C 219.98 45.84 256.85 30.84 294.75 19.88 C 332.22 9.04 370.90 2.66 409.79 0.00 M 333.09 136.45 C 293.66 141.83 254.81 152.59 218.89 169.83 C 171.33 192.34 129.39 228.07 102.85 273.80 C 82.56 308.34 71.14 347.56 66.60 387.21 C 63.16 415.01 64.13 443.06 64.00 471.01 C 64.00 525.67 64.00 580.33 64.00 634.99 C 63.70 656.87 66.22 678.71 70.40 700.16 C 78.25 741.32 92.83 781.38 114.91 817.07 C 135.24 849.72 162.66 878.04 195.07 898.82 C 225.40 918.23 259.82 930.74 295.12 937.42 C 322.30 942.54 350.06 944.63 377.68 943.96 C 377.64 673.76 377.68 403.55 377.66 133.34 C 362.76 133.33 347.86 134.44 333.09 136.45 M 325.56 997.72 C 312.51 1000.17 302.77 1012.87 302.96 1026.02 C 302.60 1039.45 312.65 1052.64 326.11 1054.79 C 337.23 1056.94 348.76 1050.68 354.18 1040.97 C 360.63 1030.05 358.89 1015.02 350.09 1005.88 C 343.95 999.31 334.45 995.93 325.56 997.72 Z M 94.27 1147.00 C 249.40 1147.00 404.54 1147.00 559.67 1147.00 C 559.67 1202.67 559.67 1258.33 559.67 1314.00 L 121.42 1314.00 C 112.05 1258.39 103.39 1202.65 94.27 1147.00 Z" />
</g>
<g id="rightHalf">
<path fill="#ffffff" opacity="1.00" d=" M 559.67 0.00 L 706.61 0.00 C 746.20 1.08 785.82 5.65 824.19 15.63 C 858.05 24.45 890.92 37.40 921.20 55.00 C 969.05 82.53 1009.80 121.79 1040.25 167.75 C 1068.95 210.75 1088.99 259.13 1102.21 308.99 C 1110.98 342.35 1116.53 376.55 1118.81 410.96 C 1118.97 413.84 1119.54 416.68 1120.00 419.54 L 1120.00 876.07 C 1118.68 885.68 1118.65 895.40 1117.85 905.06 C 1115.06 943.12 1108.43 981.04 1096.09 1017.22 C 1082.37 1057.65 1061.26 1095.81 1032.71 1127.67 C 875.03 1127.66 717.34 1127.67 559.66 1127.67 C 559.68 1021.14 559.65 914.62 559.68 808.09 C 597.14 808.26 634.61 808.12 672.08 808.16 C 672.08 638.78 672.08 469.39 672.08 300.00 C 634.61 300.00 597.14 300.00 559.67 300.00 C 559.67 200.00 559.67 100.00 559.67 0.00 M 741.66 133.35 C 741.68 403.65 741.66 673.94 741.67 944.23 C 748.13 944.46 754.60 944.27 761.07 943.98 C 797.91 941.88 834.43 934.19 869.10 921.58 C 902.14 909.47 933.52 892.31 960.28 869.34 C 983.57 849.54 1003.22 825.46 1017.69 798.52 C 1039.31 758.53 1049.62 713.20 1052.01 668.02 C 1053.01 646.35 1052.36 624.65 1052.67 602.97 C 1052.77 547.32 1052.45 491.67 1052.67 436.02 C 1052.39 410.25 1048.50 384.64 1042.68 359.57 C 1034.98 327.08 1023.17 295.44 1006.45 266.48 C 991.83 240.89 972.93 217.71 950.63 198.42 C 925.87 176.84 896.59 160.69 865.49 150.26 C 825.73 136.88 783.44 132.56 741.66 133.35 M 784.47 997.67 C 780.54 998.45 776.79 1000.07 773.53 1002.38 C 762.67 1009.71 758.05 1024.78 763.15 1036.88 C 768.25 1050.83 785.10 1058.83 799.13 1053.89 C 813.67 1049.57 822.82 1032.67 818.13 1018.15 C 814.42 1003.95 798.78 994.47 784.47 997.67 Z M 559.67 1147.00 C 716.61 1147.00 873.56 1147.00 1030.50 1147.00 C 1022.75 1202.66 1015.10 1258.34 1007.31 1314.00 L 559.67 1314.00 C 559.67 1258.33 559.67 1202.67 559.67 1147.00 Z" />
</g>
</svg>